<?xml version="1.0" encoding="utf-8"?>
<!-- Generator: Adobe Illustrator 16.0.0, SVG Export Plug-In . SVG Version: 6.00 Build 0)  -->
<!DOCTYPE svg PUBLIC "-//W3C//DTD SVG 1.1//EN" "http://www.w3.org/Graphics/SVG/1.1/DTD/svg11.dtd">
<svg version="1.1" id="Layer_4" xmlns="http://www.w3.org/2000/svg" xmlns:xlink="http://www.w3.org/1999/xlink" x="0px" y="0px"
	 width="512px" height="512px" viewBox="0 0 512 512" enable-background="new 0 0 512 512" xml:space="preserve">
<path fill-rule="evenodd" clip-rule="evenodd" fill="#231F20" d="M448,512H64.004C28.664,512,0,483.359,0,448.016v-48.008
	c0-25.617,19.555-49,52.152-67.773c2.516-1.859,5.566-2.969,8.902-2.969c8.324,0,15.062,6.734,15.062,15.062
	c0,5.586-3.09,10.406-7.602,13l0.039,0.062C45.52,370.023,32,384.773,32,400.008v48.008C32,465.68,46.324,480,64.004,480H448
	c17.672,0,32-14.32,32-31.984v-48.008c0-44.18-100.297-79.992-223.992-79.992c-29.422,0-56.438-10.039-78.074-26.727
	c-14.879-11.5-27.137-26.195-35.812-43.047c-0.453-0.891-0.867-1.75-1.277-2.641c-1.547-3.211-2.988-6.492-4.266-9.828
	c-0.477-1.195-0.93-2.43-1.34-3.648c-1.113-3.133-2.062-6.367-2.906-9.617c-0.352-1.344-0.742-2.68-1.051-4.062
	c-0.762-3.336-1.34-6.719-1.836-10.156c-0.184-1.32-0.453-2.602-0.594-3.922c-0.539-4.719-0.848-9.492-0.848-14.359v-96
	C128.004,42.984,170.988,0,224.008,0h63.984c53.016,0,96,42.984,96,96.008v96c0,22.094-5.93,42.672-15.805,60.766
	c-2.016,6.492-8.016,11.234-15.188,11.234c-8.836,0-16.008-7.156-16.008-15.992c0-2.703,0.742-5.211,1.914-7.438l-0.188-0.102
	c7.297-12.469,11.914-26.688,12.945-41.914c0.227-2.164,0.328-4.352,0.328-6.555v-96c0-35.344-28.641-64.008-64-64.008h-63.984
	c-35.359,0-64,28.664-64,64.008v96c0,2.203,0.102,4.391,0.328,6.555c3.277,48.523,42.613,87.117,91.449,89.242
	c1.277,0.148,2.66,0.203,4.223,0.203c27.227,0,53.43,1.875,78.039,5.32c6.344,0.883,12.547,1.875,18.672,2.969
	c0.156,0.016,0.328,0.062,0.469,0.078c5.875,1.055,11.625,2.227,17.266,3.461c0.664,0.148,1.297,0.289,1.961,0.438
	c11.211,2.516,21.961,5.375,32.148,8.547c0.492,0.172,1.008,0.289,1.484,0.453c4.961,1.57,9.805,3.242,14.5,4.969
	c0.5,0.188,0.992,0.375,1.484,0.555c4.43,1.648,8.734,3.359,12.906,5.156c0.344,0.164,0.695,0.305,1.062,0.453
	c4.375,1.891,8.555,3.828,12.594,5.852c0.516,0.242,1.008,0.516,1.5,0.758c4,2.023,7.898,4.125,11.562,6.289
	c0.086,0.039,0.172,0.125,0.266,0.164c3.508,2.078,6.766,4.203,9.938,6.367c0.555,0.367,1.156,0.781,1.711,1.172
	c3.172,2.25,6.18,4.516,8.984,6.844c0.305,0.25,0.617,0.516,0.906,0.766c2.758,2.344,5.375,4.719,7.766,7.148
	c0.125,0.125,0.25,0.227,0.367,0.352c2.328,2.391,4.391,4.844,6.352,7.312c0.43,0.578,0.906,1.109,1.32,1.688
	c1.828,2.453,3.5,4.945,4.969,7.461c0.156,0.312,0.344,0.617,0.516,0.945c1.359,2.438,2.484,4.906,3.477,7.398
	c0.148,0.375,0.336,0.742,0.453,1.117c0.992,2.633,1.711,5.312,2.273,8.016c0.094,0.516,0.18,1.047,0.266,1.586
	c0.469,2.758,0.781,5.539,0.781,8.367v48.008C512,483.359,483.359,512,448,512L448,512z M143.996,320.016
	c0,8.836-7.152,15.984-15.992,15.984s-16.012-7.148-16.012-15.984c0-8.844,7.172-16.016,16.012-16.016
	S143.996,311.172,143.996,320.016L143.996,320.016z"/>
</svg>
